# xmcd
#
# Track frame offsets:
# 150
# 13689
# 26470
# 38440
# 50194
# 62270
# 74458
# 87310
# 101300
# 111408
# 121548
# 131506
# 140665
# 152586
# 163260
# 175095
# 191334
# 201228
# 210529
# 224921
# 239216
# 251601
# 263757
#
# Disc length: 3638 seconds
#
#
# Revision: 0
# Processed by: cddbd v1.5.1PL0 Copyright (c) Steve Scherf et al.
# Submitted via: FreeRIP 2.60 
#
DISCID=4e0e3417
DTITLE=Yeary, Danny and Sheila Renee - The Yearys  Tribute to Patsy Cline and Jim Reeves
DYEAR=1900
DGENRE=Country
TTITLE0=Have You Ever Been Lonely
TTITLE1=I Fall To Pieces
TTITLE2=Bimbo
TTITLE3=Sweet Dreams
TTITLE4=Am I Losing You?
TTITLE5=Walkin' After Midnight
TTITLE6=Four Walls
TTITLE7=She's Got You
TTITLE8=Blue Boy
TTITLE9=Rose of San Antone
TTITLE10=He'll Have To Go
TTITLE11=Foolin' Around
TTITLE12=Missing You
TTITLE13=Leavin' On Your Mind
TTITLE14=Welcome To My World
TTITLE15=Faded Love
TTITLE16=Is It Really Over
TTITLE17=Blue Moon Of Kentucky
TTITLE18=This Is It
TTITLE19=So Wrong
TTITLE20=Blue Side Of Lonesome
TTITLE21=Crazy
TTITLE22=Back In Baby's Arms
EXTD=
EXTT0=
EXTT1=
EXTT2=
EXTT3=
EXTT4=
EXTT5=
EXTT6=
EXTT7=
EXTT8=
EXTT9=
EXTT10=
EXTT11=
EXTT12=
EXTT13=
EXTT14=
EXTT15=
EXTT16=
EXTT17=
EXTT18=
EXTT19=
EXTT20=
EXTT21=
EXTT22=
PLAYORDER=
